<?xml version="1.0" encoding="utf-8"?>
<!-- Generator: Adobe Illustrator 21.1.0, SVG Export Plug-In . SVG Version: 6.00 Build 0)  -->
<svg version="1.1" id="Layer_1" xmlns="http://www.w3.org/2000/svg" xmlns:xlink="http://www.w3.org/1999/xlink" x="0px" y="0px"
	 viewBox="0 0 50 50" style="enable-background:new 0 0 50 50;" xml:space="preserve">
<style type="text/css">
	.st0{fill:#4C4747;stroke:#423E3E;stroke-width:4;stroke-miterlimit:10;}
</style>
<title>se-logo</title>
<path class="st0" d="M4.5,36.1c2.3,1.4,4.8,2.1,7.5,2.1c4.3,0,6.8-2.3,6.8-5.5c0-3-1.7-4.8-6.1-6.4c-5.3-1.9-8.5-4.6-8.5-9.2
	c0-5,4.2-8.8,10.5-8.8c2.5-0.1,4.9,0.5,7.2,1.6l-1.2,3.4c-1.9-1-4-1.6-6.1-1.6c-4.4,0-6.1,2.6-6.1,4.8c0,3,2,4.5,6.4,6.2
	c5.5,2.1,8.3,4.8,8.3,9.5c0,5-3.7,9.3-11.3,9.3c-2.9,0-5.7-0.7-8.3-2.1L4.5,36.1z"/>
<path class="st0" d="M45.5,26.1H32.9v11.7h14v3.5H28.8V8.9h17.5v3.5H32.9v10.2h12.6V26.1z"/>
</svg>
